<svg version="1.1" viewBox="0.0 0.0 960.0 720.0" fill="none" stroke="none" stroke-linecap="square" stroke-miterlimit="10" xmlns:xlink="http://www.w3.org/1999/xlink" xmlns="http://www.w3.org/2000/svg"><clipPath id="p.0"><path d="m0 0l960.0 0l0 720.0l-960.0 0l0 -720.0z" clip-rule="nonzero"/></clipPath><g clip-path="url(#p.0)"><path fill="#000000" fill-opacity="0.0" d="m0 0l960.0 0l0 720.0l-960.0 0z" fill-rule="evenodd"/><path fill="#ff0000" d="m0 330.61154l0 0c0 -71.47522 56.426224 -129.41731 126.031494 -129.41731l0 0c33.42563 0 65.48224 13.6349945 89.11772 37.905457c23.635498 24.270462 36.913773 57.188248 36.913773 91.511856l0 0c0 71.47522 -56.426224 129.41733 -126.031494 129.41733l0 0c-69.60527 0 -126.031494 -57.94211 -126.031494 -129.41733z" fill-rule="evenodd"/><path fill="#ff0000" d="m707.937 330.61154l0 0c0 -71.47522 56.42621 -129.41731 126.031494 -129.41731l0 0c33.42566 0 65.48224 13.6349945 89.11774 37.905457c23.635498 24.270462 36.913757 57.188248 36.913757 91.511856l0 0c0 71.47522 -56.42621 129.41733 -126.031494 129.41733l0 0c-69.605286 0 -126.031494 -57.94211 -126.031494 -129.41733z" fill-rule="evenodd"/><path fill="#ff0000" d="m122.25197 201.19423l715.4961 0l0 258.83466l-715.4961 0z" fill-rule="evenodd"/><path fill="#000000" fill-opacity="0.0" d="m92.86614 235.6588l774.2677 0l0 165.03935l-774.2677 0z" fill-rule="evenodd"/><path fill="#ffffff" d="m308.6875 276.1638q18.25 0 29.5625 11.90625q11.3125 11.90625 11.3125 33.28125q0 21.375 -11.0625 33.78125q-11.0625 12.40625 -29.8125 12.40625l-40.0625 0l0 -91.375l40.0625 0zm-1.5625 74.5q9.625 0 15.96875 -6.90625q6.34375 -6.90625 6.34375 -20.59375q0 -15.8125 -6.625 -22.96875q-6.625 -7.15625 -19.1875 -7.15625l-14.875 0l0 57.625l18.375 0zm86.625 -51.0625q15.5625 0 24.9375 9.59375q9.375 9.59375 9.375 25.34375q0 15.8125 -9.46875 25.3125q-9.46875 9.5 -24.84375 9.5q-15.375 0 -24.78125 -9.5625q-9.40625 -9.5625 -9.40625 -25.25q0 -15.6875 9.25 -25.3125q9.25 -9.625 24.9375 -9.625zm-16.0 34.9375q0 10.4375 4.28125 15.78125q4.28125 5.34375 11.71875 5.34375q7.75 0 11.9375 -5.53125q4.1875 -5.53125 4.1875 -15.59375q0 -9.875 -4.0625 -15.5625q-4.0625 -5.6875 -12.1875 -5.6875q-7.3125 0 -11.59375 5.28125q-4.28125 5.28125 -4.28125 15.96875zm100.0 -34.9375q12.6875 0 18.40625 6.40625q5.71875 6.40625 5.71875 20.15625l0 41.375l-18.1875 0l0 -37.9375q0 -7.75 -2.65625 -11.71875q-2.65625 -3.96875 -8.96875 -3.96875q-7.5625 0 -10.84375 4.5q-3.28125 4.5 -3.28125 13.8125l0 35.3125l-18.125 0l0 -66.1875l17.25 0l0 9.25l0.375 0q3.3125 -5.3125 8.625 -8.15625q5.3125 -2.84375 11.6875 -2.84375zm68.3125 0q14.6875 0 21.84375 4.8125q7.15625 4.8125 7.15625 13.5625l0 35.5q0 4.0 0.53125 8.0q0.53125 4.0 1.78125 6.0625l-18.4375 0q-0.5 -1.5 -0.84375 -3.09375q-0.34375 -1.59375 -0.46875 -3.21875q-3.8125 3.9375 -9.46875 6.03125q-5.65625 2.09375 -12.78125 2.09375q-10.25 0 -16.375 -5.15625q-6.125 -5.15625 -6.125 -14.71875q0 -9.25 5.75 -14.15625q5.75 -4.90625 20.9375 -6.59375q10.5625 -1.0 13.9375 -2.59375q3.375 -1.59375 3.375 -5.53125q0 -4.4375 -2.59375 -6.65625q-2.59375 -2.21875 -9.09375 -2.21875q-5.625 0 -8.625 2.40625q-3.0 2.40625 -3.5 7.59375l-18.1875 0q0.75 -10.875 8.96875 -16.5q8.21875 -5.625 22.21875 -5.625zm-15.0625 49.125q0 3.9375 2.6875 6.1875q2.6875 2.25 8.5 2.25q7.25 0 10.96875 -3.8125q3.71875 -3.8125 3.71875 -11.125l0 -7.0625q-1.625 1.3125 -4.28125 1.96875q-2.65625 0.65625 -9.59375 1.65625q-6.1875 0.8125 -9.09375 3.21875q-2.90625 2.40625 -2.90625 6.71875zm81.1875 -67.1875l0 19.8125l13.3125 0l0 12.1875l-13.3125 0l0 33.1875q0 4.0625 1.53125 5.65625q1.53125 1.59375 6.15625 1.59375q1.5625 0 3.0 -0.125q1.4375 -0.125 2.625 -0.375l0 14.1875q-2.25 0.375 -5.03125 0.5q-2.78125 0.125 -5.46875 0.125q-11.8125 0 -16.40625 -4.03125q-4.59375 -4.03125 -4.59375 -11.28125l0 -39.4375l-11.0 0l0 -12.1875l11.0 0l0 -19.8125l18.1875 0zm52.0 18.0625q14.6875 0 23.46875 10.09375q8.78125 10.09375 8.78125 25.78125l-0.125 3.375l-47.75 0q0.375 8.5625 4.46875 12.6875q4.09375 4.125 11.71875 4.125q4.9375 0 9.125 -2.53125q4.1875 -2.53125 5.3125 -6.09375l16.0 0q-3.6875 11.25 -11.375 16.78125q-7.6875 5.53125 -19.625 5.53125q-15.3125 0 -24.5625 -9.6875q-9.25 -9.6875 -9.25 -25.125q0 -14.8125 9.46875 -24.875q9.46875 -10.0625 24.34375 -10.0625zm-15.625 27.75l29.5625 0q-1.3125 -7.3125 -4.71875 -10.6875q-3.40625 -3.375 -9.84375 -3.375q-6.625 0 -10.5 3.75q-3.875 3.75 -4.5 10.3125z" fill-rule="nonzero"/></g></svg>