<svg version="1.1" viewBox="0.0 0.0 960.0 720.0" fill="none" stroke="none" stroke-linecap="square" stroke-miterlimit="10" xmlns:xlink="http://www.w3.org/1999/xlink" xmlns="http://www.w3.org/2000/svg"><clipPath id="p.0"><path d="m0 0l960.0 0l0 720.0l-960.0 0l0 -720.0z" clip-rule="nonzero"/></clipPath><g clip-path="url(#p.0)"><path fill="#efefef" d="m0 0l960.0 0l0 720.0l-960.0 0z" fill-rule="evenodd"/><path fill="#000000" fill-opacity="0.0" d="m311.81104 199.27821l375.937 0l0 152.85039l-375.937 0z" fill-rule="evenodd"/><path fill="#000000" d="m337.6079 227.96884l18.015625 47.96875l18.078125 -47.96875l10.390625 0l0 57.109375l-7.1875 0l0 -47.546875l-0.15625 0l-17.84375 47.546875l-6.484375 0l-17.859375 -47.546875l-0.15625 0l0 47.546875l-7.1875 0l0 -57.109375l10.390625 0zm75.203125 14.796875q8.90625 0 13.828125 6.40625q4.921875 6.40625 4.921875 16.453125l0 0.8125l-30.984375 0l0 0.515625q0 5.890625 3.4375 9.484375q3.4375 3.59375 9.453125 3.59375q4.53125 0 7.203125 -2.109375q2.6875 -2.109375 3.5 -5.96875l6.71875 0q-1.359375 6.875 -6.015625 10.5q-4.640625 3.609375 -11.640625 3.609375q-6.515625 0 -11.03125 -2.953125q-4.515625 -2.953125 -6.671875 -8.203125q-2.140625 -5.265625 -2.140625 -10.765625q0 -9.140625 5.5 -15.25q5.515625 -6.125 13.921875 -6.125zm-12.234375 17.65625l23.75 0q-0.3125 -5.03125 -3.65625 -8.34375q-3.328125 -3.328125 -8.328125 -3.328125q-4.6875 0 -8.015625 3.171875q-3.3125 3.15625 -3.75 8.5zm55.203125 -17.65625q8.90625 0 13.828125 6.40625q4.921875 6.40625 4.921875 16.453125l0 0.8125l-30.984375 0l0 0.515625q0 5.890625 3.4375 9.484375q3.4375 3.59375 9.453125 3.59375q4.53125 0 7.203125 -2.109375q2.6875 -2.109375 3.5 -5.96875l6.71875 0q-1.359375 6.875 -6.015625 10.5q-4.640625 3.609375 -11.640625 3.609375q-6.515625 0 -11.03125 -2.953125q-4.515625 -2.953125 -6.671875 -8.203125q-2.140625 -5.265625 -2.140625 -10.765625q0 -9.140625 5.5 -15.25q5.515625 -6.125 13.921875 -6.125zm-12.234375 17.65625l23.75 0q-0.3125 -5.03125 -3.65625 -8.34375q-3.328125 -3.328125 -8.328125 -3.328125q-4.6875 0 -8.015625 3.171875q-3.3125 3.15625 -3.75 8.5zm47.46875 -29.09375l0 12.375l8.234375 0l0 6.015625l-8.234375 0l0 25.90625q0 3.078125 2.046875 3.265625q2.046875 0.171875 4.28125 0.171875l1.90625 0l0 6.015625l-5.625 0q-5.578125 0 -7.5 -1.984375q-1.90625 -2.0 -1.90625 -6.6875l0 -26.6875l-7.078125 0l0 -6.015625l7.078125 0l0 -12.375l6.796875 0zm22.929688 -3.359375l0 8.3125l-6.796875 0l0 -8.3125l6.796875 0zm0 15.734375l0 41.375l-6.796875 0l0 -41.375l6.796875 0zm30.617188 -0.9375q7.46875 0 10.84375 3.828125q3.375 3.828125 3.375 10.9375l0 27.546875l-6.796875 0l0 -28.25q0 -3.515625 -2.25 -5.796875q-2.234375 -2.28125 -6.21875 -2.28125q-5.75 0 -8.96875 3.53125q-3.21875 3.53125 -3.21875 9.15625l0 23.640625l-6.796875 0l0 -41.375l6.40625 0l0 6.5625l0.15625 0q2.265625 -3.859375 5.5625 -5.671875q3.296875 -1.828125 7.90625 -1.828125zm41.289062 0q4.34375 0 7.5 1.875q3.171875 1.875 4.890625 5.0l0.078125 0l0 -5.9375l6.359375 0l0 38.28125q0 9.734375 -4.6875 14.8125q-4.6875 5.078125 -14.453125 5.078125q-7.109375 0 -11.96875 -3.125q-4.859375 -3.125 -5.171875 -9.015625l6.796875 0q0.15625 3.15625 3.375 4.9375q3.21875 1.78125 7.328125 1.78125q6.015625 0 9.21875 -3.984375q3.203125 -3.984375 3.203125 -11.84375l0 -2.578125l-0.15625 0q-1.609375 3.4375 -5.0625 5.46875q-3.453125 2.03125 -7.875 2.03125q-8.390625 0 -13.421875 -5.78125q-5.015625 -5.78125 -5.015625 -15.15625q0 -9.5 5.015625 -15.671875q5.03125 -6.171875 14.046875 -6.171875zm-11.875 21.015625q0 7.390625 3.078125 11.59375q3.09375 4.1875 8.609375 4.1875q5.625 0 8.953125 -4.34375q3.34375 -4.359375 3.34375 -11.671875q0 -6.640625 -3.09375 -10.71875q-3.078125 -4.078125 -8.734375 -4.078125q-5.703125 0 -8.9375 4.109375q-3.21875 4.09375 -3.21875 10.921875zm54.734375 -21.015625q8.359375 0 12.421875 3.25q4.0625 3.234375 4.453125 9.6875l-6.796875 0l0 -0.078125q-0.28125 -3.28125 -2.875 -5.078125q-2.59375 -1.796875 -6.703125 -1.796875q-4.09375 0 -6.46875 1.390625q-2.359375 1.375 -2.359375 3.875q0 2.265625 2.09375 3.71875q2.09375 1.4375 6.3125 2.34375l6.40625 1.4375q6.015625 1.328125 9.140625 4.09375q3.125 2.75 3.125 7.390625q0 6.09375 -4.734375 9.578125q-4.71875 3.484375 -12.890625 3.484375q-7.921875 0 -12.578125 -3.5625q-4.640625 -3.5625 -4.953125 -10.46875l6.828125 0q0.125 3.859375 3.046875 5.9375q2.9375 2.0625 8.046875 2.0625q4.921875 0 7.453125 -1.5625q2.546875 -1.5625 2.546875 -4.609375q0 -2.765625 -2.515625 -4.390625q-2.515625 -1.625 -10.328125 -3.1875q-7.8125 -1.515625 -11.0 -4.3125q-3.1875 -2.796875 -3.1875 -7.4375q0 -5.4375 4.40625 -8.59375q4.421875 -3.171875 11.109375 -3.171875z" fill-rule="nonzero"/><path fill="#ff0000" d="m334.2173 312.31073l0 14.96875l3.078125 0l0 2.40625l-3.078125 0l0 5.3125l-2.5625 0l0 -5.3125l-9.953125 0l0 -2.625l10.34375 -14.75l2.171875 0zm-2.625 3.875l-7.546875 11.09375l7.609375 0l0 -11.09375l-0.0625 0zm26.75 8.640625l0 2.5625l-9.25 0l0 -2.5625l9.25 0zm25.546875 -12.125l0 2.390625l-9.15625 0l-1.21875 6.53125l0.0625 0.0625q0.71875 -0.78125 1.796875 -1.203125q1.09375 -0.421875 2.4375 -0.421875q3.296875 0 5.296875 2.0625q2.015625 2.0625 2.015625 5.6875q0 3.265625 -2.1875 5.421875q-2.1875 2.15625 -5.734375 2.15625q-3.03125 0 -5.09375 -1.75q-2.046875 -1.75 -2.140625 -4.71875l0 -0.03125l2.71875 0q0.125 1.8125 1.453125 2.953125q1.34375 1.140625 3.3125 1.140625q2.09375 0 3.4375 -1.4375q1.359375 -1.4375 1.359375 -3.9375q0 -2.3125 -1.484375 -3.734375q-1.46875 -1.421875 -3.640625 -1.421875q-1.203125 0 -2.265625 0.546875q-1.046875 0.53125 -1.953125 1.59375l-2.328125 -0.125l2.109375 -11.765625l11.203125 0zm12.953125 5.375q3.546875 0 5.578125 2.4375q2.046875 2.4375 2.046875 6.265625q0 3.84375 -2.03125 6.234375q-2.03125 2.375 -5.515625 2.375q-1.546875 0 -3.03125 -0.640625q-1.46875 -0.640625 -2.328125 -1.953125l-0.0625 0l0 8.546875l-2.71875 0l0 -22.890625l2.71875 0l0 2.25l0.0625 0q0.640625 -1.28125 2.015625 -1.953125q1.390625 -0.671875 3.265625 -0.671875zm-5.4375 8.640625q0 2.875 1.390625 4.578125q1.390625 1.6875 3.828125 1.6875q2.359375 0 3.65625 -1.6875q1.296875 -1.6875 1.296875 -4.703125q0 -2.671875 -1.375 -4.390625q-1.359375 -1.734375 -3.765625 -1.734375q-2.390625 0 -3.71875 1.75q-1.3125 1.75 -1.3125 4.5zm24.21875 -8.640625q1.8125 0 2.953125 0.734375q1.15625 0.734375 1.59375 2.078125q0.84375 -1.328125 2.203125 -2.0625q1.359375 -0.75 3.0 -0.75q2.796875 0 4.140625 1.265625q1.34375 1.265625 1.34375 3.421875l0 12.234375l-2.71875 0l0 -10.96875q0 -1.78125 -0.765625 -2.671875q-0.75 -0.890625 -2.4375 -0.890625q-2.03125 0 -3.171875 1.1875q-1.140625 1.1875 -1.140625 2.953125l0 10.390625l-2.734375 0l0 -10.96875q0 -1.78125 -0.75 -2.671875q-0.75 -0.890625 -2.34375 -0.890625q-1.296875 0 -2.296875 0.625q-1.0 0.625 -1.5625 1.71875q-0.5625 1.078125 -0.5625 1.828125l0 10.359375l-2.71875 0l0 -16.546875l2.5625 0l0 2.4375l0.0625 0q0.9375 -1.421875 2.265625 -2.109375q1.328125 -0.703125 3.078125 -0.703125z" fill-rule="nonzero"/><path fill="#000000" fill-opacity="0.0" d="m311.81104 375.29398l336.37793 0l0 238.48819l-336.37793 0z" fill-rule="evenodd"/><path fill="#000000" d="m329.5298 403.9846l11.203125 47.5l0.15625 0l12.8125 -47.5l8.25 0l12.609375 47.5l0.15625 0l11.609375 -47.5l7.609375 0l-15.265625 57.109375l-7.9375 0l-13.046875 -48.015625l-0.15625 0l-13.203125 48.015625l-7.921875 0l-14.609375 -57.109375l7.734375 0zm85.74219 14.796875q8.90625 0 13.828125 6.40625q4.921875 6.40625 4.921875 16.453125l0 0.8125l-30.984375 0l0 0.515625q0 5.890625 3.4375 9.484375q3.4375 3.59375 9.453125 3.59375q4.53125 0 7.203125 -2.109375q2.6875 -2.109375 3.5 -5.96875l6.71875 0q-1.359375 6.875 -6.015625 10.5q-4.640625 3.609375 -11.640625 3.609375q-6.515625 0 -11.03125 -2.953125q-4.515625 -2.953125 -6.671875 -8.203125q-2.140625 -5.265625 -2.140625 -10.765625q0 -9.140625 5.5 -15.25q5.515625 -6.125 13.921875 -6.125zm-12.234375 17.65625l23.75 0q-0.3125 -5.03125 -3.65625 -8.34375q-3.328125 -3.328125 -8.328125 -3.328125q-4.6875 0 -8.015625 3.171875q-3.3125 3.15625 -3.75 8.5zm55.203125 -17.65625q8.90625 0 13.828125 6.40625q4.921875 6.40625 4.921875 16.453125l0 0.8125l-30.984375 0l0 0.515625q0 5.890625 3.4375 9.484375q3.4375 3.59375 9.453125 3.59375q4.53125 0 7.203125 -2.109375q2.6875 -2.109375 3.5 -5.96875l6.71875 0q-1.359375 6.875 -6.015625 10.5q-4.640625 3.609375 -11.640625 3.609375q-6.515625 0 -11.03125 -2.953125q-4.515625 -2.953125 -6.671875 -8.203125q-2.140625 -5.265625 -2.140625 -10.765625q0 -9.140625 5.5 -15.25q5.515625 -6.125 13.921875 -6.125zm-12.234375 17.65625l23.75 0q-0.3125 -5.03125 -3.65625 -8.34375q-3.328125 -3.328125 -8.328125 -3.328125q-4.6875 0 -8.015625 3.171875q-3.3125 3.15625 -3.75 8.5zm45.203125 -32.453125l0 33.828125l18.90625 -18.09375l9.09375 0l-16.40625 15.046875l17.625 26.328125l-8.640625 0l-14.171875 -21.609375l-6.40625 5.9375l0 15.671875l-6.796875 0l0 -57.109375l6.796875 0zm41.523438 0l0 57.109375l-6.796875 0l0 -57.109375l6.796875 0zm13.7890625 15.734375l12.0625 33.828125l0.15625 0l11.609375 -33.828125l7.21875 0l-17.578125 45.796875q-2.765625 7.140625 -5.328125 9.640625q-2.5625 2.5 -7.09375 2.5q-1.25 0 -2.421875 -0.15625q-1.171875 -0.15625 -2.296875 -0.546875l0 -6.25q0.96875 0.3125 1.96875 0.625q1.0 0.3125 2.015625 0.3125q4.140625 0 5.78125 -4.140625q1.640625 -4.140625 2.609375 -6.640625l-16.40625 -41.140625l7.703125 0z" fill-rule="nonzero"/><path fill="#ff0000" d="m339.1548 488.17023l0 2.5625l-7.625 0l0 20.28125l-3.03125 0l0 -20.28125l-7.625 0l0 -2.5625l18.28125 0zm1.71875 6.296875l0 11.28125q0 1.40625 0.890625 2.328125q0.90625 0.921875 2.484375 0.921875q2.34375 0 3.609375 -1.421875q1.28125 -1.4375 1.28125 -3.65625l0 -9.453125l2.71875 0l0 16.546875l-2.5625 0l0 -2.625l-0.0625 0q-0.90625 1.578125 -2.265625 2.296875q-1.359375 0.71875 -3.125 0.71875q-2.890625 0 -4.296875 -1.484375q-1.390625 -1.5 -1.390625 -4.421875l0 -11.03125l2.71875 0zm21.953125 -0.375q3.5625 0 5.53125 2.5625q1.96875 2.5625 1.96875 6.578125l0 0.328125l-12.390625 0l0 0.203125q0 2.359375 1.375 3.796875q1.375 1.4375 3.78125 1.4375q1.8125 0 2.875 -0.84375q1.078125 -0.84375 1.40625 -2.390625l2.6875 0q-0.546875 2.75 -2.40625 4.203125q-1.859375 1.4375 -4.65625 1.4375q-2.609375 0 -4.421875 -1.171875q-1.796875 -1.1875 -2.65625 -3.28125q-0.859375 -2.109375 -0.859375 -4.3125q0 -3.65625 2.203125 -6.09375q2.203125 -2.453125 5.5625 -2.453125zm-4.890625 7.0625l9.5 0q-0.125 -2.015625 -1.46875 -3.34375q-1.328125 -1.328125 -3.328125 -1.328125q-1.875 0 -3.203125 1.265625q-1.328125 1.265625 -1.5 3.40625zm20.703125 -7.0625q3.34375 0 4.96875 1.296875q1.625 1.296875 1.78125 3.875l-2.71875 0l0 -0.03125q-0.109375 -1.3125 -1.15625 -2.03125q-1.03125 -0.71875 -2.671875 -0.71875q-1.640625 0 -2.59375 0.5625q-0.9375 0.546875 -0.9375 1.546875q0 0.90625 0.828125 1.484375q0.84375 0.578125 2.53125 0.9375l2.5625 0.578125q2.40625 0.53125 3.65625 1.640625q1.25 1.09375 1.25 2.953125q0 2.4375 -1.890625 3.828125q-1.890625 1.390625 -5.15625 1.390625q-3.171875 0 -5.03125 -1.421875q-1.859375 -1.421875 -1.984375 -4.1875l2.734375 0q0.046875 1.546875 1.21875 2.375q1.171875 0.828125 3.21875 0.828125q1.96875 0 2.984375 -0.625q1.015625 -0.625 1.015625 -1.84375q0 -1.109375 -1.015625 -1.75q-1.0 -0.65625 -4.125 -1.28125q-3.125 -0.609375 -4.40625 -1.71875q-1.265625 -1.125 -1.265625 -2.984375q0 -2.171875 1.765625 -3.4375q1.765625 -1.265625 4.4375 -1.265625zm26.375 -5.921875q2.390625 0 3.953125 1.28125q1.578125 1.28125 1.578125 3.390625q0 1.71875 -1.09375 3.21875q-1.09375 1.5 -3.203125 2.703125l4.140625 5.015625q0.296875 -0.84375 0.484375 -1.703125q0.203125 -0.875 0.25 -1.84375l2.59375 0q-0.203125 1.96875 -0.484375 2.96875q-0.28125 1.0 -1.0625 2.65625l4.453125 5.15625l-3.546875 0l-2.4375 -2.828125q-0.984375 1.5 -2.734375 2.359375q-1.75 0.859375 -3.75 0.859375q-3.4375 0 -5.28125 -1.78125q-1.828125 -1.796875 -1.828125 -4.484375q0 -2.125 1.234375 -3.765625q1.234375 -1.65625 4.109375 -3.125l-1.078125 -1.453125q-0.71875 -0.96875 -1.09375 -1.890625q-0.359375 -0.9375 -0.359375 -2.03125q0 -1.984375 1.40625 -3.34375q1.421875 -1.359375 3.75 -1.359375zm-2.4375 4.8125q0 0.734375 0.4375 1.546875q0.4375 0.8125 1.765625 2.4375q1.765625 -1.125 2.40625 -2.03125q0.640625 -0.90625 0.640625 -1.9375q0 -1.0 -0.734375 -1.71875q-0.71875 -0.71875 -1.90625 -0.71875q-1.03125 0 -1.828125 0.65625q-0.78125 0.65625 -0.78125 1.765625zm-2.65625 12.125q0 1.65625 1.3125 2.78125q1.3125 1.109375 3.03125 1.109375q1.515625 0 2.75 -0.703125q1.25 -0.71875 2.125 -2.015625l-5.265625 -6.3125q-2.15625 1.1875 -3.0625 2.359375q-0.890625 1.171875 -0.890625 2.78125zm43.453125 -16.9375l0 2.5625l-7.625 0l0 20.28125l-3.03125 0l0 -20.28125l-7.625 0l0 -2.5625l18.28125 0zm4.796875 0l0 8.734375l0.0625 0q0.59375 -1.328125 2.015625 -2.0625q1.421875 -0.75 3.21875 -0.75q2.984375 0 4.328125 1.53125q1.359375 1.53125 1.359375 4.375l0 11.015625l-2.71875 0l0 -11.296875q0 -1.40625 -0.90625 -2.3125q-0.890625 -0.921875 -2.484375 -0.921875q-2.296875 0 -3.59375 1.421875q-1.28125 1.40625 -1.28125 3.65625l0 9.453125l-2.71875 0l0 -22.84375l2.71875 0zm17.796875 6.296875l0 11.28125q0 1.40625 0.890625 2.328125q0.90625 0.921875 2.484375 0.921875q2.34375 0 3.609375 -1.421875q1.28125 -1.4375 1.28125 -3.65625l0 -9.453125l2.71875 0l0 16.546875l-2.5625 0l0 -2.625l-0.0625 0q-0.90625 1.578125 -2.265625 2.296875q-1.359375 0.71875 -3.125 0.71875q-2.890625 0 -4.296875 -1.484375q-1.390625 -1.5 -1.390625 -4.421875l0 -11.03125l2.71875 0zm23.3125 -0.390625q0.09375 0 0.171875 0q0.078125 0 0.203125 0.015625l0 2.875q-3.0625 0 -4.53125 1.625q-1.453125 1.625 -1.453125 5.015625l0 7.40625l-2.71875 0l0 -16.546875l2.5625 0l0 3.484375l0.0625 0q0.953125 -1.96875 2.34375 -2.921875q1.40625 -0.953125 3.359375 -0.953125zm7.921875 0.015625q3.34375 0 4.96875 1.296875q1.625 1.296875 1.78125 3.875l-2.71875 0l0 -0.03125q-0.109375 -1.3125 -1.15625 -2.03125q-1.03125 -0.71875 -2.671875 -0.71875q-1.640625 0 -2.59375 0.5625q-0.9375 0.546875 -0.9375 1.546875q0 0.90625 0.828125 1.484375q0.84375 0.578125 2.53125 0.9375l2.5625 0.578125q2.40625 0.53125 3.65625 1.640625q1.25 1.09375 1.25 2.953125q0 2.4375 -1.890625 3.828125q-1.890625 1.390625 -5.15625 1.390625q-3.171875 0 -5.03125 -1.421875q-1.859375 -1.421875 -1.984375 -4.1875l2.734375 0q0.046875 1.546875 1.21875 2.375q1.171875 0.828125 3.21875 0.828125q1.96875 0 2.984375 -0.625q1.015625 -0.625 1.015625 -1.84375q0 -1.109375 -1.015625 -1.75q-1.0 -0.65625 -4.125 -1.28125q-3.125 -0.609375 -4.40625 -1.71875q-1.265625 -1.125 -1.265625 -2.984375q0 -2.171875 1.765625 -3.4375q1.765625 -1.265625 4.4375 -1.265625z" fill-rule="nonzero"/></g></svg>